<?xml version="1.0" encoding="UTF-8"?>
<svg xmlns="http://www.w3.org/2000/svg" width="70mm" height="70mm" viewBox="0 0 70 70">
  <circle cx="6.03" cy="6.03" r="1.01" fill="black"/>
  <circle cx="8.45" cy="6.03" r="1.01" fill="black"/>
  <circle cx="10.86" cy="6.03" r="1.01" fill="black"/>
  <circle cx="13.28" cy="6.03" r="1.01" fill="black"/>
  <circle cx="15.69" cy="6.03" r="1.01" fill="black"/>
  <circle cx="18.10" cy="6.03" r="1.01" fill="black"/>
  <circle cx="20.52" cy="6.03" r="1.01" fill="black"/>
  <circle cx="27.76" cy="6.03" r="1.01" fill="black"/>
  <circle cx="30.17" cy="6.03" r="1.01" fill="black"/>
  <circle cx="39.83" cy="6.03" r="1.01" fill="black"/>
  <circle cx="44.66" cy="6.03" r="1.01" fill="black"/>
  <circle cx="49.48" cy="6.03" r="1.01" fill="black"/>
  <circle cx="51.90" cy="6.03" r="1.01" fill="black"/>
  <circle cx="54.31" cy="6.03" r="1.01" fill="black"/>
  <circle cx="56.72" cy="6.03" r="1.01" fill="black"/>
  <circle cx="59.14" cy="6.03" r="1.01" fill="black"/>
  <circle cx="61.55" cy="6.03" r="1.01" fill="black"/>
  <circle cx="63.97" cy="6.03" r="1.01" fill="black"/>
  <circle cx="6.03" cy="8.45" r="1.01" fill="black"/>
  <circle cx="20.52" cy="8.45" r="1.01" fill="black"/>
  <circle cx="30.17" cy="8.45" r="1.01" fill="black"/>
  <circle cx="32.59" cy="8.45" r="1.01" fill="black"/>
  <circle cx="37.41" cy="8.45" r="1.01" fill="black"/>
  <circle cx="42.24" cy="8.45" r="1.01" fill="black"/>
  <circle cx="44.66" cy="8.45" r="1.01" fill="black"/>
  <circle cx="49.48" cy="8.45" r="1.01" fill="black"/>
  <circle cx="63.97" cy="8.45" r="1.01" fill="black"/>
  <circle cx="6.03" cy="10.86" r="1.01" fill="black"/>
  <circle cx="10.86" cy="10.86" r="1.01" fill="black"/>
  <circle cx="13.28" cy="10.86" r="1.01" fill="black"/>
  <circle cx="15.69" cy="10.86" r="1.01" fill="black"/>
  <circle cx="20.52" cy="10.86" r="1.01" fill="black"/>
  <circle cx="25.34" cy="10.86" r="1.01" fill="black"/>
  <circle cx="27.76" cy="10.86" r="1.01" fill="black"/>
  <circle cx="42.24" cy="10.86" r="1.01" fill="black"/>
  <circle cx="49.48" cy="10.86" r="1.01" fill="black"/>
  <circle cx="54.31" cy="10.86" r="1.01" fill="black"/>
  <circle cx="56.72" cy="10.86" r="1.01" fill="black"/>
  <circle cx="59.14" cy="10.86" r="1.01" fill="black"/>
  <circle cx="63.97" cy="10.86" r="1.01" fill="black"/>
  <circle cx="6.03" cy="13.28" r="1.01" fill="black"/>
  <circle cx="10.86" cy="13.28" r="1.01" fill="black"/>
  <circle cx="13.28" cy="13.28" r="1.01" fill="black"/>
  <circle cx="15.69" cy="13.28" r="1.01" fill="black"/>
  <circle cx="20.52" cy="13.28" r="1.01" fill="black"/>
  <circle cx="25.34" cy="13.28" r="1.01" fill="black"/>
  <circle cx="27.76" cy="13.28" r="1.01" fill="black"/>
  <circle cx="35.00" cy="13.28" r="1.01" fill="black"/>
  <circle cx="37.41" cy="13.28" r="1.01" fill="black"/>
  <circle cx="39.83" cy="13.28" r="1.01" fill="black"/>
  <circle cx="42.24" cy="13.28" r="1.01" fill="black"/>
  <circle cx="49.48" cy="13.28" r="1.01" fill="black"/>
  <circle cx="54.31" cy="13.28" r="1.01" fill="black"/>
  <circle cx="56.72" cy="13.28" r="1.01" fill="black"/>
  <circle cx="59.14" cy="13.28" r="1.01" fill="black"/>
  <circle cx="63.97" cy="13.28" r="1.01" fill="black"/>
  <circle cx="6.03" cy="15.69" r="1.01" fill="black"/>
  <circle cx="10.86" cy="15.69" r="1.01" fill="black"/>
  <circle cx="13.28" cy="15.69" r="1.01" fill="black"/>
  <circle cx="15.69" cy="15.69" r="1.01" fill="black"/>
  <circle cx="20.52" cy="15.69" r="1.01" fill="black"/>
  <circle cx="25.34" cy="15.69" r="1.01" fill="black"/>
  <circle cx="30.17" cy="15.69" r="1.01" fill="black"/>
  <circle cx="35.00" cy="15.69" r="1.01" fill="black"/>
  <circle cx="44.66" cy="15.69" r="1.01" fill="black"/>
  <circle cx="49.48" cy="15.69" r="1.01" fill="black"/>
  <circle cx="54.31" cy="15.69" r="1.01" fill="black"/>
  <circle cx="56.72" cy="15.69" r="1.01" fill="black"/>
  <circle cx="59.14" cy="15.69" r="1.01" fill="black"/>
  <circle cx="63.97" cy="15.69" r="1.01" fill="black"/>
  <circle cx="6.03" cy="18.10" r="1.01" fill="black"/>
  <circle cx="20.52" cy="18.10" r="1.01" fill="black"/>
  <circle cx="25.34" cy="18.10" r="1.01" fill="black"/>
  <circle cx="32.59" cy="18.10" r="1.01" fill="black"/>
  <circle cx="42.24" cy="18.10" r="1.01" fill="black"/>
  <circle cx="44.66" cy="18.10" r="1.01" fill="black"/>
  <circle cx="49.48" cy="18.10" r="1.01" fill="black"/>
  <circle cx="63.97" cy="18.10" r="1.01" fill="black"/>
  <circle cx="6.03" cy="20.52" r="1.01" fill="black"/>
  <circle cx="8.45" cy="20.52" r="1.01" fill="black"/>
  <circle cx="10.86" cy="20.52" r="1.01" fill="black"/>
  <circle cx="13.28" cy="20.52" r="1.01" fill="black"/>
  <circle cx="15.69" cy="20.52" r="1.01" fill="black"/>
  <circle cx="18.10" cy="20.52" r="1.01" fill="black"/>
  <circle cx="20.52" cy="20.52" r="1.01" fill="black"/>
  <circle cx="25.34" cy="20.52" r="1.01" fill="black"/>
  <circle cx="30.17" cy="20.52" r="1.01" fill="black"/>
  <circle cx="35.00" cy="20.52" r="1.01" fill="black"/>
  <circle cx="39.83" cy="20.52" r="1.01" fill="black"/>
  <circle cx="44.66" cy="20.52" r="1.01" fill="black"/>
  <circle cx="49.48" cy="20.52" r="1.01" fill="black"/>
  <circle cx="51.90" cy="20.52" r="1.01" fill="black"/>
  <circle cx="54.31" cy="20.52" r="1.01" fill="black"/>
  <circle cx="56.72" cy="20.52" r="1.01" fill="black"/>
  <circle cx="59.14" cy="20.52" r="1.01" fill="black"/>
  <circle cx="61.55" cy="20.52" r="1.01" fill="black"/>
  <circle cx="63.97" cy="20.52" r="1.01" fill="black"/>
  <circle cx="25.34" cy="22.93" r="1.01" fill="black"/>
  <circle cx="32.59" cy="22.93" r="1.01" fill="black"/>
  <circle cx="35.00" cy="22.93" r="1.01" fill="black"/>
  <circle cx="39.83" cy="22.93" r="1.01" fill="black"/>
  <circle cx="6.03" cy="25.34" r="1.01" fill="black"/>
  <circle cx="10.86" cy="25.34" r="1.01" fill="black"/>
  <circle cx="13.28" cy="25.34" r="1.01" fill="black"/>
  <circle cx="15.69" cy="25.34" r="1.01" fill="black"/>
  <circle cx="18.10" cy="25.34" r="1.01" fill="black"/>
  <circle cx="20.52" cy="25.34" r="1.01" fill="black"/>
  <circle cx="30.17" cy="25.34" r="1.01" fill="black"/>
  <circle cx="37.41" cy="25.34" r="1.01" fill="black"/>
  <circle cx="42.24" cy="25.34" r="1.01" fill="black"/>
  <circle cx="44.66" cy="25.34" r="1.01" fill="black"/>
  <circle cx="49.48" cy="25.34" r="1.01" fill="black"/>
  <circle cx="51.90" cy="25.34" r="1.01" fill="black"/>
  <circle cx="54.31" cy="25.34" r="1.01" fill="black"/>
  <circle cx="56.72" cy="25.34" r="1.01" fill="black"/>
  <circle cx="59.14" cy="25.34" r="1.01" fill="black"/>
  <circle cx="6.03" cy="27.76" r="1.01" fill="black"/>
  <circle cx="13.28" cy="27.76" r="1.01" fill="black"/>
  <circle cx="15.69" cy="27.76" r="1.01" fill="black"/>
  <circle cx="22.93" cy="27.76" r="1.01" fill="black"/>
  <circle cx="27.76" cy="27.76" r="1.01" fill="black"/>
  <circle cx="30.17" cy="27.76" r="1.01" fill="black"/>
  <circle cx="37.41" cy="27.76" r="1.01" fill="black"/>
  <circle cx="44.66" cy="27.76" r="1.01" fill="black"/>
  <circle cx="51.90" cy="27.76" r="1.01" fill="black"/>
  <circle cx="61.55" cy="27.76" r="1.01" fill="black"/>
  <circle cx="8.45" cy="30.17" r="1.01" fill="black"/>
  <circle cx="10.86" cy="30.17" r="1.01" fill="black"/>
  <circle cx="15.69" cy="30.17" r="1.01" fill="black"/>
  <circle cx="18.10" cy="30.17" r="1.01" fill="black"/>
  <circle cx="20.52" cy="30.17" r="1.01" fill="black"/>
  <circle cx="22.93" cy="30.17" r="1.01" fill="black"/>
  <circle cx="25.34" cy="30.17" r="1.01" fill="black"/>
  <circle cx="30.17" cy="30.17" r="1.01" fill="black"/>
  <circle cx="32.59" cy="30.17" r="1.01" fill="black"/>
  <circle cx="37.41" cy="30.17" r="1.01" fill="black"/>
  <circle cx="39.83" cy="30.17" r="1.01" fill="black"/>
  <circle cx="42.24" cy="30.17" r="1.01" fill="black"/>
  <circle cx="44.66" cy="30.17" r="1.01" fill="black"/>
  <circle cx="47.07" cy="30.17" r="1.01" fill="black"/>
  <circle cx="51.90" cy="30.17" r="1.01" fill="black"/>
  <circle cx="54.31" cy="30.17" r="1.01" fill="black"/>
  <circle cx="56.72" cy="30.17" r="1.01" fill="black"/>
  <circle cx="61.55" cy="30.17" r="1.01" fill="black"/>
  <circle cx="63.97" cy="30.17" r="1.01" fill="black"/>
  <circle cx="6.03" cy="32.59" r="1.01" fill="black"/>
  <circle cx="8.45" cy="32.59" r="1.01" fill="black"/>
  <circle cx="10.86" cy="32.59" r="1.01" fill="black"/>
  <circle cx="13.28" cy="32.59" r="1.01" fill="black"/>
  <circle cx="22.93" cy="32.59" r="1.01" fill="black"/>
  <circle cx="25.34" cy="32.59" r="1.01" fill="black"/>
  <circle cx="27.76" cy="32.59" r="1.01" fill="black"/>
  <circle cx="30.17" cy="32.59" r="1.01" fill="black"/>
  <circle cx="35.00" cy="32.59" r="1.01" fill="black"/>
  <circle cx="44.66" cy="32.59" r="1.01" fill="black"/>
  <circle cx="47.07" cy="32.59" r="1.01" fill="black"/>
  <circle cx="63.97" cy="32.59" r="1.01" fill="black"/>
  <circle cx="10.86" cy="35.00" r="1.01" fill="black"/>
  <circle cx="13.28" cy="35.00" r="1.01" fill="black"/>
  <circle cx="20.52" cy="35.00" r="1.01" fill="black"/>
  <circle cx="22.93" cy="35.00" r="1.01" fill="black"/>
  <circle cx="32.59" cy="35.00" r="1.01" fill="black"/>
  <circle cx="35.00" cy="35.00" r="1.01" fill="black"/>
  <circle cx="37.41" cy="35.00" r="1.01" fill="black"/>
  <circle cx="39.83" cy="35.00" r="1.01" fill="black"/>
  <circle cx="47.07" cy="35.00" r="1.01" fill="black"/>
  <circle cx="49.48" cy="35.00" r="1.01" fill="black"/>
  <circle cx="54.31" cy="35.00" r="1.01" fill="black"/>
  <circle cx="59.14" cy="35.00" r="1.01" fill="black"/>
  <circle cx="61.55" cy="35.00" r="1.01" fill="black"/>
  <circle cx="63.97" cy="35.00" r="1.01" fill="black"/>
  <circle cx="6.03" cy="37.41" r="1.01" fill="black"/>
  <circle cx="8.45" cy="37.41" r="1.01" fill="black"/>
  <circle cx="13.28" cy="37.41" r="1.01" fill="black"/>
  <circle cx="18.10" cy="37.41" r="1.01" fill="black"/>
  <circle cx="22.93" cy="37.41" r="1.01" fill="black"/>
  <circle cx="25.34" cy="37.41" r="1.01" fill="black"/>
  <circle cx="44.66" cy="37.41" r="1.01" fill="black"/>
  <circle cx="47.07" cy="37.41" r="1.01" fill="black"/>
  <circle cx="51.90" cy="37.41" r="1.01" fill="black"/>
  <circle cx="56.72" cy="37.41" r="1.01" fill="black"/>
  <circle cx="61.55" cy="37.41" r="1.01" fill="black"/>
  <circle cx="6.03" cy="39.83" r="1.01" fill="black"/>
  <circle cx="10.86" cy="39.83" r="1.01" fill="black"/>
  <circle cx="18.10" cy="39.83" r="1.01" fill="black"/>
  <circle cx="20.52" cy="39.83" r="1.01" fill="black"/>
  <circle cx="32.59" cy="39.83" r="1.01" fill="black"/>
  <circle cx="35.00" cy="39.83" r="1.01" fill="black"/>
  <circle cx="37.41" cy="39.83" r="1.01" fill="black"/>
  <circle cx="42.24" cy="39.83" r="1.01" fill="black"/>
  <circle cx="51.90" cy="39.83" r="1.01" fill="black"/>
  <circle cx="54.31" cy="39.83" r="1.01" fill="black"/>
  <circle cx="56.72" cy="39.83" r="1.01" fill="black"/>
  <circle cx="61.55" cy="39.83" r="1.01" fill="black"/>
  <circle cx="63.97" cy="39.83" r="1.01" fill="black"/>
  <circle cx="6.03" cy="42.24" r="1.01" fill="black"/>
  <circle cx="13.28" cy="42.24" r="1.01" fill="black"/>
  <circle cx="18.10" cy="42.24" r="1.01" fill="black"/>
  <circle cx="22.93" cy="42.24" r="1.01" fill="black"/>
  <circle cx="27.76" cy="42.24" r="1.01" fill="black"/>
  <circle cx="30.17" cy="42.24" r="1.01" fill="black"/>
  <circle cx="32.59" cy="42.24" r="1.01" fill="black"/>
  <circle cx="39.83" cy="42.24" r="1.01" fill="black"/>
  <circle cx="44.66" cy="42.24" r="1.01" fill="black"/>
  <circle cx="47.07" cy="42.24" r="1.01" fill="black"/>
  <circle cx="49.48" cy="42.24" r="1.01" fill="black"/>
  <circle cx="51.90" cy="42.24" r="1.01" fill="black"/>
  <circle cx="54.31" cy="42.24" r="1.01" fill="black"/>
  <circle cx="63.97" cy="42.24" r="1.01" fill="black"/>
  <circle cx="6.03" cy="44.66" r="1.01" fill="black"/>
  <circle cx="15.69" cy="44.66" r="1.01" fill="black"/>
  <circle cx="20.52" cy="44.66" r="1.01" fill="black"/>
  <circle cx="25.34" cy="44.66" r="1.01" fill="black"/>
  <circle cx="27.76" cy="44.66" r="1.01" fill="black"/>
  <circle cx="32.59" cy="44.66" r="1.01" fill="black"/>
  <circle cx="37.41" cy="44.66" r="1.01" fill="black"/>
  <circle cx="39.83" cy="44.66" r="1.01" fill="black"/>
  <circle cx="44.66" cy="44.66" r="1.01" fill="black"/>
  <circle cx="47.07" cy="44.66" r="1.01" fill="black"/>
  <circle cx="49.48" cy="44.66" r="1.01" fill="black"/>
  <circle cx="51.90" cy="44.66" r="1.01" fill="black"/>
  <circle cx="54.31" cy="44.66" r="1.01" fill="black"/>
  <circle cx="59.14" cy="44.66" r="1.01" fill="black"/>
  <circle cx="25.34" cy="47.07" r="1.01" fill="black"/>
  <circle cx="27.76" cy="47.07" r="1.01" fill="black"/>
  <circle cx="35.00" cy="47.07" r="1.01" fill="black"/>
  <circle cx="37.41" cy="47.07" r="1.01" fill="black"/>
  <circle cx="42.24" cy="47.07" r="1.01" fill="black"/>
  <circle cx="44.66" cy="47.07" r="1.01" fill="black"/>
  <circle cx="54.31" cy="47.07" r="1.01" fill="black"/>
  <circle cx="56.72" cy="47.07" r="1.01" fill="black"/>
  <circle cx="6.03" cy="49.48" r="1.01" fill="black"/>
  <circle cx="8.45" cy="49.48" r="1.01" fill="black"/>
  <circle cx="10.86" cy="49.48" r="1.01" fill="black"/>
  <circle cx="13.28" cy="49.48" r="1.01" fill="black"/>
  <circle cx="15.69" cy="49.48" r="1.01" fill="black"/>
  <circle cx="18.10" cy="49.48" r="1.01" fill="black"/>
  <circle cx="20.52" cy="49.48" r="1.01" fill="black"/>
  <circle cx="37.41" cy="49.48" r="1.01" fill="black"/>
  <circle cx="39.83" cy="49.48" r="1.01" fill="black"/>
  <circle cx="44.66" cy="49.48" r="1.01" fill="black"/>
  <circle cx="49.48" cy="49.48" r="1.01" fill="black"/>
  <circle cx="54.31" cy="49.48" r="1.01" fill="black"/>
  <circle cx="59.14" cy="49.48" r="1.01" fill="black"/>
  <circle cx="61.55" cy="49.48" r="1.01" fill="black"/>
  <circle cx="63.97" cy="49.48" r="1.01" fill="black"/>
  <circle cx="6.03" cy="51.90" r="1.01" fill="black"/>
  <circle cx="20.52" cy="51.90" r="1.01" fill="black"/>
  <circle cx="25.34" cy="51.90" r="1.01" fill="black"/>
  <circle cx="30.17" cy="51.90" r="1.01" fill="black"/>
  <circle cx="35.00" cy="51.90" r="1.01" fill="black"/>
  <circle cx="39.83" cy="51.90" r="1.01" fill="black"/>
  <circle cx="44.66" cy="51.90" r="1.01" fill="black"/>
  <circle cx="54.31" cy="51.90" r="1.01" fill="black"/>
  <circle cx="56.72" cy="51.90" r="1.01" fill="black"/>
  <circle cx="61.55" cy="51.90" r="1.01" fill="black"/>
  <circle cx="6.03" cy="54.31" r="1.01" fill="black"/>
  <circle cx="10.86" cy="54.31" r="1.01" fill="black"/>
  <circle cx="13.28" cy="54.31" r="1.01" fill="black"/>
  <circle cx="15.69" cy="54.31" r="1.01" fill="black"/>
  <circle cx="20.52" cy="54.31" r="1.01" fill="black"/>
  <circle cx="25.34" cy="54.31" r="1.01" fill="black"/>
  <circle cx="27.76" cy="54.31" r="1.01" fill="black"/>
  <circle cx="30.17" cy="54.31" r="1.01" fill="black"/>
  <circle cx="35.00" cy="54.31" r="1.01" fill="black"/>
  <circle cx="37.41" cy="54.31" r="1.01" fill="black"/>
  <circle cx="39.83" cy="54.31" r="1.01" fill="black"/>
  <circle cx="42.24" cy="54.31" r="1.01" fill="black"/>
  <circle cx="44.66" cy="54.31" r="1.01" fill="black"/>
  <circle cx="47.07" cy="54.31" r="1.01" fill="black"/>
  <circle cx="49.48" cy="54.31" r="1.01" fill="black"/>
  <circle cx="51.90" cy="54.31" r="1.01" fill="black"/>
  <circle cx="54.31" cy="54.31" r="1.01" fill="black"/>
  <circle cx="59.14" cy="54.31" r="1.01" fill="black"/>
  <circle cx="61.55" cy="54.31" r="1.01" fill="black"/>
  <circle cx="63.97" cy="54.31" r="1.01" fill="black"/>
  <circle cx="6.03" cy="56.72" r="1.01" fill="black"/>
  <circle cx="10.86" cy="56.72" r="1.01" fill="black"/>
  <circle cx="13.28" cy="56.72" r="1.01" fill="black"/>
  <circle cx="15.69" cy="56.72" r="1.01" fill="black"/>
  <circle cx="20.52" cy="56.72" r="1.01" fill="black"/>
  <circle cx="25.34" cy="56.72" r="1.01" fill="black"/>
  <circle cx="37.41" cy="56.72" r="1.01" fill="black"/>
  <circle cx="42.24" cy="56.72" r="1.01" fill="black"/>
  <circle cx="47.07" cy="56.72" r="1.01" fill="black"/>
  <circle cx="49.48" cy="56.72" r="1.01" fill="black"/>
  <circle cx="54.31" cy="56.72" r="1.01" fill="black"/>
  <circle cx="56.72" cy="56.72" r="1.01" fill="black"/>
  <circle cx="59.14" cy="56.72" r="1.01" fill="black"/>
  <circle cx="61.55" cy="56.72" r="1.01" fill="black"/>
  <circle cx="63.97" cy="56.72" r="1.01" fill="black"/>
  <circle cx="6.03" cy="59.14" r="1.01" fill="black"/>
  <circle cx="10.86" cy="59.14" r="1.01" fill="black"/>
  <circle cx="13.28" cy="59.14" r="1.01" fill="black"/>
  <circle cx="15.69" cy="59.14" r="1.01" fill="black"/>
  <circle cx="20.52" cy="59.14" r="1.01" fill="black"/>
  <circle cx="25.34" cy="59.14" r="1.01" fill="black"/>
  <circle cx="27.76" cy="59.14" r="1.01" fill="black"/>
  <circle cx="30.17" cy="59.14" r="1.01" fill="black"/>
  <circle cx="32.59" cy="59.14" r="1.01" fill="black"/>
  <circle cx="35.00" cy="59.14" r="1.01" fill="black"/>
  <circle cx="39.83" cy="59.14" r="1.01" fill="black"/>
  <circle cx="44.66" cy="59.14" r="1.01" fill="black"/>
  <circle cx="56.72" cy="59.14" r="1.01" fill="black"/>
  <circle cx="59.14" cy="59.14" r="1.01" fill="black"/>
  <circle cx="63.97" cy="59.14" r="1.01" fill="black"/>
  <circle cx="6.03" cy="61.55" r="1.01" fill="black"/>
  <circle cx="20.52" cy="61.55" r="1.01" fill="black"/>
  <circle cx="27.76" cy="61.55" r="1.01" fill="black"/>
  <circle cx="30.17" cy="61.55" r="1.01" fill="black"/>
  <circle cx="32.59" cy="61.55" r="1.01" fill="black"/>
  <circle cx="39.83" cy="61.55" r="1.01" fill="black"/>
  <circle cx="42.24" cy="61.55" r="1.01" fill="black"/>
  <circle cx="44.66" cy="61.55" r="1.01" fill="black"/>
  <circle cx="47.07" cy="61.55" r="1.01" fill="black"/>
  <circle cx="51.90" cy="61.55" r="1.01" fill="black"/>
  <circle cx="54.31" cy="61.55" r="1.01" fill="black"/>
  <circle cx="56.72" cy="61.55" r="1.01" fill="black"/>
  <circle cx="63.97" cy="61.55" r="1.01" fill="black"/>
  <circle cx="6.03" cy="63.97" r="1.01" fill="black"/>
  <circle cx="8.45" cy="63.97" r="1.01" fill="black"/>
  <circle cx="10.86" cy="63.97" r="1.01" fill="black"/>
  <circle cx="13.28" cy="63.97" r="1.01" fill="black"/>
  <circle cx="15.69" cy="63.97" r="1.01" fill="black"/>
  <circle cx="18.10" cy="63.97" r="1.01" fill="black"/>
  <circle cx="20.52" cy="63.97" r="1.01" fill="black"/>
  <circle cx="25.34" cy="63.97" r="1.01" fill="black"/>
  <circle cx="32.59" cy="63.97" r="1.01" fill="black"/>
  <circle cx="35.00" cy="63.97" r="1.01" fill="black"/>
  <circle cx="47.07" cy="63.97" r="1.01" fill="black"/>
  <circle cx="51.90" cy="63.97" r="1.01" fill="black"/>
  <circle cx="54.31" cy="63.97" r="1.01" fill="black"/>
  <circle cx="56.72" cy="63.97" r="1.01" fill="black"/>
  <circle cx="59.14" cy="63.97" r="1.01" fill="black"/>
  <circle cx="61.55" cy="63.97" r="1.01" fill="black"/>
  <circle cx="63.97" cy="63.97" r="1.01" fill="black"/>
</svg>